<svg width="6" height="12" viewBox="0 0 6 12" fill="none" xmlns="http://www.w3.org/2000/svg">
<path d="M5.9993 6.01098C5.99976 6.24415 5.91838 6.47013 5.7693 6.64967L1.7693 11.6395C1.59956 11.8433 1.35565 11.9714 1.09122 11.9958C0.826796 12.0201 0.563515 11.9386 0.359299 11.7692C0.155082 11.5998 0.0266581 11.3564 0.00227836 11.0925C-0.0221014 10.8286 0.0595599 10.5659 0.229298 10.3621L3.7093 6.01098L0.389299 1.65986C0.306233 1.55778 0.244201 1.44033 0.20677 1.31424C0.169338 1.18816 0.157244 1.05594 0.171183 0.925179C0.185122 0.794418 0.224819 0.667695 0.287993 0.552294C0.351167 0.436892 0.436572 0.335089 0.539299 0.252734C0.64212 0.161341 0.762746 0.092123 0.89362 0.0494184C1.02449 0.00671287 1.16279 -0.00855928 1.29986 0.00455755C1.43692 0.0176734 1.56979 0.058895 1.69015 0.125642C1.81051 0.192389 1.91575 0.283223 1.9993 0.39245L5.8293 5.38226C5.95481 5.56697 6.01467 5.78833 5.9993 6.01098Z" fill="#9CA0B2"/>
</svg>
