<svg width="31" height="30" viewBox="0 0 31 30" fill="none" xmlns="http://www.w3.org/2000/svg">
<path d="M16.5041 2.77124L27.1291 8.70874C27.441 8.86445 27.7033 9.10403 27.8866 9.40058C28.0699 9.69712 28.1668 10.0389 28.1666 10.3875V12.1875C28.1666 13.05 27.4666 13.75 26.6041 13.75H25.6666V23.75H26.9166C27.2481 23.75 27.5661 23.8817 27.8005 24.1161C28.0349 24.3505 28.1666 24.6685 28.1666 25C28.1666 25.3315 28.0349 25.6495 27.8005 25.8839C27.5661 26.1183 27.2481 26.25 26.9166 26.25H4.41663C4.08511 26.25 3.76716 26.1183 3.53274 25.8839C3.29832 25.6495 3.16663 25.3315 3.16663 25C3.16663 24.6685 3.29832 24.3505 3.53274 24.1161C3.76716 23.8817 4.08511 23.75 4.41663 23.75H5.66663V13.75H4.72913C3.86663 13.75 3.16663 13.05 3.16663 12.1875V10.3875C3.16663 9.73499 3.50413 9.13499 4.04913 8.79499L14.8279 2.77124C15.0883 2.64099 15.3755 2.57318 15.6666 2.57318C15.9578 2.57318 16.2437 2.64099 16.5041 2.77124ZM23.1666 13.75H8.16663V23.75H11.9166V16.25H14.4166V23.75H16.9166V16.25H19.4166V23.75H23.1666V13.75ZM15.6666 5.14749L5.66663 10.7725V11.25H25.6666V10.7725L15.6666 5.14749ZM15.6666 7.49999C15.9981 7.49999 16.3161 7.63169 16.5505 7.86611C16.7849 8.10053 16.9166 8.41847 16.9166 8.74999C16.9166 9.08151 16.7849 9.39946 16.5505 9.63388C16.3161 9.8683 15.9981 9.99999 15.6666 9.99999C15.3351 9.99999 15.0172 9.8683 14.7827 9.63388C14.5483 9.39946 14.4166 9.08151 14.4166 8.74999C14.4166 8.41847 14.5483 8.10053 14.7827 7.86611C15.0172 7.63169 15.3351 7.49999 15.6666 7.49999Z" fill="#F8F8F8"/>
</svg>
