<svg width="20" height="21" viewBox="0 0 20 21" fill="none" xmlns="http://www.w3.org/2000/svg">
<path fill-rule="evenodd" clip-rule="evenodd" d="M7.29892 4.6665H12.7011C13.3719 4.66649 13.9255 4.66648 14.3765 4.70333C14.8449 4.7416 15.2755 4.82374 15.68 5.02982C16.3072 5.34939 16.8171 5.85933 17.1367 6.48654C17.3428 6.89098 17.4249 7.32157 17.4632 7.78998C17.5 8.24097 17.5 8.7946 17.5 9.4654V13.2009C17.5 13.8717 17.5 14.4254 17.4632 14.8764C17.4249 15.3448 17.3428 15.7754 17.1367 16.1798C16.8171 16.807 16.3072 17.3169 15.68 17.6365C15.2755 17.8426 14.8449 17.9247 14.3765 17.963C13.9255 17.9999 13.3719 17.9998 12.7011 17.9998H7.29894C6.62812 17.9998 6.07448 17.9999 5.62348 17.963C5.15506 17.9247 4.72448 17.8426 4.32003 17.6365C3.69283 17.3169 3.18289 16.807 2.86331 16.1798C2.65724 15.7754 2.5751 15.3448 2.53683 14.8764C2.49998 14.4254 2.49999 13.8717 2.5 13.2009V9.46542C2.49999 8.79461 2.49998 8.24098 2.53683 7.78998C2.5751 7.32157 2.65724 6.89098 2.86331 6.48654C3.18289 5.85933 3.69283 5.34939 4.32003 5.02982C4.72448 4.82374 5.15506 4.7416 5.62348 4.70333C6.07448 4.66648 6.62811 4.66649 7.29892 4.6665ZM5.7592 6.36446C5.39385 6.39431 5.20702 6.44842 5.07668 6.51483C4.76308 6.67462 4.50811 6.92958 4.34832 7.24319C4.28191 7.37352 4.22781 7.56036 4.19796 7.9257C4.16732 8.30078 4.16667 8.78602 4.16667 9.49984V13.1665C4.16667 13.8803 4.16732 14.3656 4.19796 14.7406C4.22781 15.106 4.28191 15.2928 4.34832 15.4232C4.50811 15.7368 4.76308 15.9917 5.07668 16.1515C5.20702 16.2179 5.39385 16.272 5.7592 16.3019C6.13427 16.3325 6.61952 16.3332 7.33333 16.3332H12.6667C13.3805 16.3332 13.8657 16.3325 14.2408 16.3019C14.6061 16.272 14.793 16.2179 14.9233 16.1515C15.2369 15.9917 15.4919 15.7368 15.6517 15.4232C15.7181 15.2928 15.7722 15.106 15.802 14.7406C15.8327 14.3656 15.8333 13.8803 15.8333 13.1665V9.49984C15.8333 8.78602 15.8327 8.30078 15.802 7.9257C15.7722 7.56036 15.7181 7.37352 15.6517 7.24319C15.4919 6.92958 15.2369 6.67462 14.9233 6.51483C14.793 6.44842 14.6061 6.39431 14.2408 6.36446C13.8657 6.33382 13.3805 6.33317 12.6667 6.33317H7.33333C6.61952 6.33317 6.13427 6.33382 5.7592 6.36446Z" fill="#262E3D"/>
<path d="M7.50004 3.83333C7.50004 3.3731 7.12694 3 6.66671 3C6.20647 3 5.83337 3.3731 5.83337 3.83333V5.5C5.83337 5.96024 6.20647 6.33333 6.66671 6.33333C7.12694 6.33333 7.50004 5.96024 7.50004 5.5V3.83333Z" fill="#262E3D"/>
<path d="M14.1667 3.83333C14.1667 3.3731 13.7936 3 13.3334 3C12.8731 3 12.5 3.3731 12.5 3.83333V5.5C12.5 5.96024 12.8731 6.33333 13.3334 6.33333C13.7936 6.33333 14.1667 5.96024 14.1667 5.5V3.83333Z" fill="#262E3D"/>
<path d="M8.33333 8C7.8731 8 7.5 8.3731 7.5 8.83333C7.5 9.29357 7.8731 9.66667 8.33333 9.66667H9.16667V13H8.33333C7.8731 13 7.5 13.3731 7.5 13.8333C7.5 14.2936 7.8731 14.6667 8.33333 14.6667H11.6667C12.1269 14.6667 12.5 14.2936 12.5 13.8333C12.5 13.3731 12.1269 13 11.6667 13H10.8333V8.83333C10.8333 8.3731 10.4602 8 10 8H8.33333Z" fill="#262E3D"/>
</svg>
