<svg width="27" height="26" viewBox="0 0 27 26" fill="none" xmlns="http://www.w3.org/2000/svg">
<rect x="1.45703" y="0.5" width="25" height="25" rx="12.5" stroke="#9A9A9A"/>
<path d="M16.1445 15.5H16.0811C16.0062 15.1354 15.8743 14.8001 15.6855 14.4941C15.4967 14.1882 15.2673 13.9245 14.9971 13.7031C14.7269 13.4818 14.4225 13.3092 14.084 13.1855C13.7454 13.0618 13.3906 13 13.0195 13C12.7331 13 12.4564 13.0374 12.1895 13.1123C11.9225 13.1872 11.6735 13.2913 11.4424 13.4248C11.2113 13.5583 11.0013 13.721 10.8125 13.9131C10.6237 14.1051 10.4609 14.3167 10.3242 14.5479C10.1875 14.779 10.0817 15.028 10.0068 15.2949C9.93197 15.5618 9.89453 15.8385 9.89453 16.125H9.26953C9.26953 15.7344 9.3265 15.3584 9.44043 14.9971C9.55436 14.6357 9.71875 14.3021 9.93359 13.9961C10.1484 13.6901 10.4023 13.4183 10.6953 13.1807C10.9883 12.943 11.3203 12.7559 11.6914 12.6191C11.3236 12.3783 11.0371 12.0755 10.832 11.7109C10.627 11.3464 10.5228 10.9427 10.5195 10.5C10.5195 10.1549 10.5846 9.83105 10.7148 9.52832C10.8451 9.22559 11.0225 8.96029 11.2471 8.73242C11.4717 8.50456 11.737 8.32552 12.043 8.19531C12.349 8.0651 12.6745 8 13.0195 8C13.3646 8 13.6885 8.0651 13.9912 8.19531C14.2939 8.32552 14.5592 8.50293 14.7871 8.72754C15.015 8.95215 15.194 9.21745 15.3242 9.52344C15.4544 9.82943 15.5195 10.1549 15.5195 10.5C15.5195 10.7148 15.4935 10.9248 15.4414 11.1299C15.3893 11.335 15.3112 11.5286 15.207 11.7109C15.1029 11.8932 14.9808 12.0609 14.8408 12.2139C14.7008 12.3669 14.5365 12.502 14.3477 12.6191C14.7122 12.7591 15.0475 12.9512 15.3535 13.1953C15.6595 13.4395 15.9232 13.7259 16.1445 14.0547V15.5ZM11.1445 10.5C11.1445 10.7604 11.1934 11.0029 11.291 11.2275C11.3887 11.4521 11.5221 11.6507 11.6914 11.8232C11.8607 11.9958 12.0592 12.1309 12.2871 12.2285C12.515 12.3262 12.7591 12.375 13.0195 12.375C13.2767 12.375 13.5192 12.3262 13.7471 12.2285C13.9749 12.1309 14.1735 11.9974 14.3428 11.8281C14.512 11.6589 14.6471 11.4603 14.748 11.2324C14.849 11.0046 14.8978 10.7604 14.8945 10.5C14.8945 10.2428 14.8457 10.0003 14.748 9.77246C14.6504 9.5446 14.5169 9.34603 14.3477 9.17676C14.1784 9.00749 13.9782 8.8724 13.7471 8.77148C13.516 8.67057 13.2734 8.62174 13.0195 8.625C12.7591 8.625 12.5166 8.67383 12.292 8.77148C12.0674 8.86914 11.8688 9.0026 11.6963 9.17188C11.5238 9.34115 11.3887 9.54134 11.291 9.77246C11.1934 10.0036 11.1445 10.2461 11.1445 10.5ZM17.3945 16.125H18.6445V16.75H17.3945V18H16.7695V16.75H15.5195V16.125H16.7695V14.875H17.3945V16.125Z" fill="#585858"/>
</svg>
