<svg width="21" height="13" viewBox="0 0 21 13" fill="none" xmlns="http://www.w3.org/2000/svg">
<path fill-rule="evenodd" clip-rule="evenodd" d="M0 0V12.67H20.67V0H0Z" fill="#2E42A5"/>
<mask id="mask0_138_60371" style="mask-type:luminance" maskUnits="userSpaceOnUse" x="0" y="0" width="21" height="13">
<path fill-rule="evenodd" clip-rule="evenodd" d="M0 0V12.67H20.67V0H0Z" fill="white"/>
</mask>
<g mask="url(#mask0_138_60371)">
<path d="M-2.30151 11.7647L2.24718 13.3374L20.7727 1.70949L23.1723 -0.627067L18.3084 -1.15234L10.7522 3.85811L4.67009 7.23467L-2.30151 11.7647Z" fill="white"/>
<path d="M-1.67944 12.8665L0.638826 13.7788L22.3107 -0.843994H19.0571L-1.67944 12.8665Z" fill="#F50100"/>
<path d="M22.9714 11.7647L18.4227 13.3374L-0.102783 1.70949L-2.50244 -0.627067L2.36147 -1.15234L9.91765 3.85811L15.9998 7.23467L22.9714 11.7647Z" fill="white"/>
<path d="M22.8164 12.5555L20.4988 13.4678L11.2709 7.2067L8.53474 6.50773L-2.73364 -0.619141H0.520591L11.7819 6.3388L14.7732 7.17713L22.8164 12.5555Z" fill="#F50100"/>
<path fill-rule="evenodd" clip-rule="evenodd" d="M12.7752 -1.05566H7.89451V4.2235H-1.27393V8.44684H7.89451V13.726H12.7752V8.44684H21.9798V4.2235H12.7752V-1.05566Z" fill="#F50100"/>
<mask id="mask1_138_60371" style="mask-type:luminance" maskUnits="userSpaceOnUse" x="-2" y="-2" width="24" height="16">
<path fill-rule="evenodd" clip-rule="evenodd" d="M12.7752 -1.05566H7.89451V4.2235H-1.27393V8.44684H7.89451V13.726H12.7752V8.44684H21.9798V4.2235H12.7752V-1.05566Z" fill="white"/>
</mask>
<g mask="url(#mask1_138_60371)">
<path d="M7.89439 -1.05574V-2.11157H6.60252V-1.05574H7.89439ZM12.7751 -1.05574H14.067V-2.11157H12.7751V-1.05574ZM7.89439 4.22343V5.27926H9.18627V4.22343H7.89439ZM-1.27404 4.22343V3.16759H-2.56592V4.22343H-1.27404ZM-1.27404 8.44676H-2.56592V9.50259H-1.27404V8.44676ZM7.89439 8.44676H9.18627V7.39093H7.89439V8.44676ZM7.89439 13.7259H6.60252V14.7818H7.89439V13.7259ZM12.7751 13.7259V14.7818H14.067V13.7259H12.7751ZM12.7751 8.44676V7.39093H11.4832V8.44676H12.7751ZM21.9797 8.44676V9.50259H23.2716V8.44676H21.9797ZM21.9797 4.22343H23.2716V3.16759H21.9797V4.22343ZM12.7751 4.22343H11.4832V5.27926H12.7751V4.22343ZM7.89439 9.44138e-05H12.7751V-2.11157H7.89439V9.44138e-05ZM9.18627 4.22343V-1.05574H6.60252V4.22343H9.18627ZM-1.27404 5.27926H7.89439V3.16759H-1.27404V5.27926ZM0.017832 8.44676V4.22343H-2.56592V8.44676H0.017832ZM7.89439 7.39093H-1.27404V9.50259H7.89439V7.39093ZM9.18627 13.7259V8.44676H6.60252V13.7259H9.18627ZM12.7751 12.6701H7.89439V14.7818H12.7751V12.6701ZM11.4832 8.44676V13.7259H14.067V8.44676H11.4832ZM21.9797 7.39093H12.7751V9.50259H21.9797V7.39093ZM20.6878 4.22343V8.44676H23.2716V4.22343H20.6878ZM12.7751 5.27926H21.9797V3.16759H12.7751V5.27926ZM11.4832 -1.05574V4.22343H14.067V-1.05574H11.4832Z" fill="white"/>
</g>
</g>
</svg>
