<svg width="20" height="21" viewBox="0 0 20 21" fill="none" xmlns="http://www.w3.org/2000/svg">
<path fill-rule="evenodd" clip-rule="evenodd" d="M14.1933 3H14.14C13.7745 2.99999 13.4591 2.99998 13.198 3.01779C12.9232 3.03655 12.6482 3.0778 12.3766 3.1903C11.7641 3.44404 11.2774 3.93072 11.0236 4.54329C10.9111 4.8149 10.8699 5.08983 10.8511 5.36468C10.8333 5.62572 10.8333 5.94112 10.8333 6.30664V6.35999C10.8333 6.72551 10.8333 7.04095 10.8511 7.30199C10.8699 7.57684 10.9111 7.85177 11.0236 8.12338C11.2774 8.73595 11.7641 9.22263 12.3766 9.47637C12.6482 9.58887 12.9232 9.63012 13.198 9.64888C13.4591 9.66669 13.7744 9.66668 14.14 9.66667H14.1933C14.5588 9.66668 14.8743 9.66669 15.1353 9.64888C15.4102 9.63012 15.6851 9.58887 15.9567 9.47637C16.5693 9.22263 17.056 8.73595 17.3097 8.12338C17.4222 7.85177 17.4635 7.57684 17.4822 7.30199C17.5 7.04094 17.5 6.72553 17.5 6.35999V6.30668C17.5 5.94114 17.5 5.62573 17.4822 5.36468C17.4635 5.08983 17.4222 4.8149 17.3097 4.54329C17.056 3.93072 16.5693 3.44404 15.9567 3.1903C15.6851 3.0778 15.4102 3.03655 15.1353 3.01779C14.8743 2.99998 14.5588 2.99999 14.1933 3ZM13.0144 4.7301C13.0491 4.71574 13.1215 4.69356 13.3115 4.68059C13.509 4.66712 13.767 4.66667 14.1667 4.66667C14.5664 4.66667 14.8244 4.66712 15.0219 4.68059C15.2119 4.69356 15.2842 4.71574 15.3189 4.7301C15.5231 4.81468 15.6853 4.97691 15.7699 5.1811C15.7843 5.21578 15.8064 5.28814 15.8194 5.47813C15.8329 5.67562 15.8333 5.93365 15.8333 6.33333C15.8333 6.73302 15.8329 6.99105 15.8194 7.18853C15.8064 7.37853 15.7843 7.45089 15.7699 7.48557C15.6853 7.68976 15.5231 7.85199 15.3189 7.93657C15.2842 7.95093 15.2119 7.97311 15.0219 7.98608C14.8244 7.99955 14.5664 8 14.1667 8C13.767 8 13.509 7.99955 13.3115 7.98608C13.1215 7.97311 13.0491 7.95093 13.0144 7.93657C12.8102 7.85199 12.648 7.68976 12.5634 7.48557C12.5491 7.45089 12.5269 7.37853 12.5139 7.18853C12.5005 6.99105 12.5 6.73302 12.5 6.33333C12.5 5.93365 12.5005 5.67562 12.5139 5.47813C12.5269 5.28814 12.5491 5.21578 12.5634 5.1811C12.648 4.97691 12.8102 4.81468 13.0144 4.7301Z" fill="#262E3D"/>
<path fill-rule="evenodd" clip-rule="evenodd" d="M5.80668 11.3333H5.85999C6.22551 11.3333 6.54095 11.3333 6.80199 11.3511C7.07684 11.3699 7.35177 11.4111 7.62338 11.5236C8.23595 11.7774 8.72263 12.2641 8.97637 12.8766C9.08887 13.1482 9.13012 13.4232 9.14888 13.698C9.16669 13.9591 9.16668 14.2744 9.16667 14.64V14.6933C9.16668 15.0588 9.16669 15.3743 9.14888 15.6353C9.13012 15.9102 9.08887 16.1851 8.97637 16.4567C8.72263 17.0693 8.23595 17.556 7.62338 17.8097C7.35177 17.9222 7.07684 17.9635 6.80199 17.9822C6.54094 18 6.22553 18 5.85999 18H5.80668C5.44114 18 5.12573 18 4.86468 17.9822C4.58983 17.9635 4.3149 17.9222 4.04329 17.8097C3.43072 17.556 2.94404 17.0693 2.6903 16.4567C2.5778 16.1851 2.53655 15.9102 2.51779 15.6353C2.49998 15.3743 2.49999 15.0589 2.5 14.6934V14.64C2.49999 14.2745 2.49998 13.9591 2.51779 13.698C2.53655 13.4232 2.5778 13.1482 2.6903 12.8766C2.94404 12.2641 3.43072 11.7774 4.04329 11.5236C4.3149 11.4111 4.58983 11.3699 4.86468 11.3511C5.12572 11.3333 5.44116 11.3333 5.80668 11.3333ZM4.97813 13.0139C4.78814 13.0269 4.71578 13.0491 4.6811 13.0634C4.47691 13.148 4.31468 13.3102 4.2301 13.5144C4.21574 13.5491 4.19356 13.6215 4.18059 13.8115C4.16712 14.009 4.16667 14.267 4.16667 14.6667C4.16667 15.0664 4.16712 15.3244 4.18059 15.5219C4.19356 15.7119 4.21574 15.7842 4.2301 15.8189C4.31468 16.0231 4.47691 16.1853 4.6811 16.2699C4.71578 16.2843 4.78814 16.3064 4.97813 16.3194C5.17562 16.3329 5.43365 16.3333 5.83333 16.3333C6.23302 16.3333 6.49105 16.3329 6.68853 16.3194C6.87853 16.3064 6.95089 16.2843 6.98557 16.2699C7.18976 16.1853 7.35199 16.0231 7.43657 15.8189C7.45093 15.7842 7.47311 15.7119 7.48608 15.5219C7.49955 15.3244 7.5 15.0664 7.5 14.6667C7.5 14.267 7.49955 14.009 7.48608 13.8115C7.47311 13.6215 7.45093 13.5491 7.43657 13.5144C7.35199 13.3102 7.18976 13.148 6.98557 13.0634C6.95089 13.0491 6.87853 13.0269 6.68853 13.0139C6.49105 13.0005 6.23302 13 5.83333 13C5.43365 13 5.17562 13.0005 4.97813 13.0139Z" fill="#262E3D"/>
<path fill-rule="evenodd" clip-rule="evenodd" d="M14.14 11.3333H14.1933C14.5588 11.3333 14.8743 11.3333 15.1353 11.3511C15.4102 11.3699 15.6851 11.4111 15.9567 11.5236C16.5693 11.7774 17.056 12.2641 17.3097 12.8766C17.4222 13.1482 17.4635 13.4232 17.4822 13.698C17.5 13.9591 17.5 14.2745 17.5 14.64V14.6933C17.5 15.0589 17.5 15.3743 17.4822 15.6353C17.4635 15.9102 17.4222 16.1851 17.3097 16.4567C17.056 17.0693 16.5693 17.556 15.9567 17.8097C15.6851 17.9222 15.4102 17.9635 15.1353 17.9822C14.8743 18 14.5589 18 14.1933 18H14.14C13.7745 18 13.4591 18 13.198 17.9822C12.9232 17.9635 12.6482 17.9222 12.3766 17.8097C11.7641 17.556 11.2774 17.0693 11.0236 16.4567C10.9111 16.1851 10.8699 15.9102 10.8511 15.6353C10.8333 15.3743 10.8333 15.0589 10.8333 14.6934V14.64C10.8333 14.2745 10.8333 13.9591 10.8511 13.698C10.8699 13.4232 10.9111 13.1482 11.0236 12.8766C11.2774 12.2641 11.7641 11.7774 12.3766 11.5236C12.6482 11.4111 12.9232 11.3699 13.198 11.3511C13.4591 11.3333 13.7745 11.3333 14.14 11.3333ZM13.3115 13.0139C13.1215 13.0269 13.0491 13.0491 13.0144 13.0634C12.8102 13.148 12.648 13.3102 12.5634 13.5144C12.5491 13.5491 12.5269 13.6215 12.5139 13.8115C12.5005 14.009 12.5 14.267 12.5 14.6667C12.5 15.0664 12.5005 15.3244 12.5139 15.5219C12.5269 15.7119 12.5491 15.7842 12.5634 15.8189C12.648 16.0231 12.8102 16.1853 13.0144 16.2699C13.0491 16.2843 13.1215 16.3064 13.3115 16.3194C13.509 16.3329 13.767 16.3333 14.1667 16.3333C14.5664 16.3333 14.8244 16.3329 15.0219 16.3194C15.2119 16.3064 15.2842 16.2843 15.3189 16.2699C15.5231 16.1853 15.6853 16.0231 15.7699 15.8189C15.7843 15.7842 15.8064 15.7119 15.8194 15.5219C15.8329 15.3244 15.8333 15.0664 15.8333 14.6667C15.8333 14.267 15.8329 14.009 15.8194 13.8115C15.8064 13.6215 15.7843 13.5491 15.7699 13.5144C15.6853 13.3102 15.5231 13.148 15.3189 13.0634C15.2842 13.0491 15.2119 13.0269 15.0219 13.0139C14.8244 13.0005 14.5664 13 14.1667 13C13.767 13 13.509 13.0005 13.3115 13.0139Z" fill="#262E3D"/>
<path fill-rule="evenodd" clip-rule="evenodd" d="M5.80668 3H5.85999C6.22553 2.99999 6.54094 2.99998 6.80199 3.01779C7.07684 3.03655 7.35177 3.0778 7.62338 3.1903C8.23595 3.44404 8.72263 3.93072 8.97637 4.54329C9.08887 4.8149 9.13012 5.08982 9.14888 5.36468C9.16669 5.62573 9.16668 5.94114 9.16667 6.30668V6.35999C9.16668 6.72553 9.16669 7.04094 9.14888 7.30199C9.13012 7.57684 9.08887 7.85177 8.97637 8.12338C8.72263 8.73595 8.23595 9.22263 7.62338 9.47637C7.35177 9.58887 7.07684 9.63012 6.80199 9.64888C6.54094 9.66669 6.22553 9.66668 5.85999 9.66667H5.80668C5.44114 9.66668 5.12573 9.66669 4.86468 9.64888C4.58982 9.63012 4.3149 9.58887 4.04329 9.47637C3.43072 9.22263 2.94404 8.73595 2.6903 8.12338C2.5778 7.85177 2.53655 7.57684 2.51779 7.30199C2.49998 7.04094 2.49999 6.72553 2.5 6.35999V6.30668C2.49999 5.94114 2.49998 5.62573 2.51779 5.36468C2.53655 5.08982 2.5778 4.8149 2.6903 4.54329C2.94404 3.93072 3.43072 3.44404 4.04329 3.1903C4.3149 3.0778 4.58982 3.03655 4.86468 3.01779C5.12573 2.99998 5.44114 2.99999 5.80668 3ZM4.97813 4.68059C4.78814 4.69356 4.71578 4.71574 4.6811 4.7301C4.47691 4.81468 4.31468 4.97691 4.2301 5.1811C4.21574 5.21578 4.19356 5.28814 4.18059 5.47813C4.16712 5.67562 4.16667 5.93365 4.16667 6.33333C4.16667 6.73302 4.16712 6.99105 4.18059 7.18853C4.19356 7.37853 4.21574 7.45089 4.2301 7.48557C4.31468 7.68976 4.47691 7.85199 4.6811 7.93657C4.71578 7.95093 4.78814 7.97311 4.97813 7.98608C5.17562 7.99955 5.43365 8 5.83333 8C6.23302 8 6.49105 7.99955 6.68853 7.98608C6.87853 7.97311 6.95089 7.95093 6.98557 7.93657C7.18976 7.85199 7.35199 7.68976 7.43657 7.48557C7.45093 7.45089 7.47311 7.37853 7.48608 7.18853C7.49955 6.99105 7.5 6.73302 7.5 6.33333C7.5 5.93365 7.49955 5.67562 7.48608 5.47813C7.47311 5.28814 7.45093 5.21578 7.43657 5.1811C7.35199 4.97691 7.18976 4.81468 6.98557 4.7301C6.95089 4.71574 6.87853 4.69356 6.68853 4.68059C6.49105 4.66712 6.23302 4.66667 5.83333 4.66667C5.43365 4.66667 5.17562 4.66712 4.97813 4.68059Z" fill="#262E3D"/>
</svg>
