<svg width="20" height="21" viewBox="0 0 20 21" fill="none" xmlns="http://www.w3.org/2000/svg">
<path fill-rule="evenodd" clip-rule="evenodd" d="M9.16671 7.16683C9.16671 6.70659 9.5398 6.3335 10 6.3335H13.3334C13.7936 6.3335 14.1667 6.70659 14.1667 7.16683C14.1667 7.62707 13.7936 8.00016 13.3334 8.00016H10C9.5398 8.00016 9.16671 7.62707 9.16671 7.16683ZM10 9.66683C9.5398 9.66683 9.16671 10.0399 9.16671 10.5002C9.16671 10.9604 9.5398 11.3335 10 11.3335H13.3334C13.7936 11.3335 14.1667 10.9604 14.1667 10.5002C14.1667 10.0399 13.7936 9.66683 13.3334 9.66683H10ZM10 13.0002C9.5398 13.0002 9.16671 13.3733 9.16671 13.8335C9.16671 14.2937 9.5398 14.6668 10 14.6668H13.3334C13.7936 14.6668 14.1667 14.2937 14.1667 13.8335C14.1667 13.3733 13.7936 13.0002 13.3334 13.0002H10ZM6.66671 14.6668C7.12694 14.6668 7.50004 14.2937 7.50004 13.8335C7.50004 13.3733 7.12694 13.0002 6.66671 13.0002C6.20647 13.0002 5.83337 13.3733 5.83337 13.8335C5.83337 14.2937 6.20647 14.6668 6.66671 14.6668ZM7.50004 10.5002C7.50004 10.9604 7.12694 11.3335 6.66671 11.3335C6.20647 11.3335 5.83337 10.9604 5.83337 10.5002C5.83337 10.0399 6.20647 9.66683 6.66671 9.66683C7.12694 9.66683 7.50004 10.0399 7.50004 10.5002ZM6.66671 8.00016C7.12694 8.00016 7.50004 7.62707 7.50004 7.16683C7.50004 6.70659 7.12694 6.3335 6.66671 6.3335C6.20647 6.3335 5.83337 6.70659 5.83337 7.16683C5.83337 7.62707 6.20647 8.00016 6.66671 8.00016Z" fill="#262E3D"/>
<path fill-rule="evenodd" clip-rule="evenodd" d="M8.63099 3H11.369C12.2722 2.99999 13.0006 2.99999 13.5905 3.04818C14.1979 3.09781 14.7314 3.20265 15.225 3.45414C16.009 3.85361 16.6464 4.49103 17.0459 5.27504C17.2973 5.76862 17.4022 6.30211 17.4518 6.90948C17.5 7.49938 17.5 8.22783 17.5 9.13097V11.869C17.5 12.7722 17.5 13.5006 17.4518 14.0905C17.4022 14.6979 17.2973 15.2314 17.0459 15.725C16.6464 16.509 16.009 17.1464 15.225 17.5459C14.7314 17.7973 14.1979 17.9022 13.5905 17.9518C13.0006 18 12.2722 18 11.369 18H8.63097C7.72783 18 6.99937 18 6.40948 17.9518C5.80211 17.9022 5.26862 17.7973 4.77504 17.5459C3.99103 17.1464 3.35361 16.509 2.95414 15.725C2.70265 15.2314 2.59781 14.6979 2.54818 14.0905C2.49999 13.5006 2.49999 12.7722 2.5 11.869V9.13099C2.49999 8.22784 2.49999 7.49938 2.54818 6.90948C2.59781 6.30211 2.70265 5.76862 2.95414 5.27504C3.35361 4.49103 3.99103 3.85361 4.77504 3.45414C5.26862 3.20265 5.80211 3.09781 6.40948 3.04818C6.99938 2.99999 7.72784 2.99999 8.63099 3ZM6.5452 4.70931C6.04089 4.75052 5.75115 4.82733 5.53169 4.93915C5.06129 5.17883 4.67883 5.56129 4.43915 6.03169C4.32733 6.25115 4.25052 6.54089 4.20931 7.0452C4.16732 7.55924 4.16667 8.2195 4.16667 9.16667V11.8333C4.16667 12.7805 4.16732 13.4408 4.20931 13.9548C4.25052 14.4591 4.32733 14.7488 4.43915 14.9683C4.67883 15.4387 5.06129 15.8212 5.53169 16.0609C5.75115 16.1727 6.04089 16.2495 6.5452 16.2907C7.05924 16.3327 7.7195 16.3333 8.66667 16.3333H11.3333C12.2805 16.3333 12.9408 16.3327 13.4548 16.2907C13.9591 16.2495 14.2488 16.1727 14.4683 16.0609C14.9387 15.8212 15.3212 15.4387 15.5609 14.9683C15.6727 14.7488 15.7495 14.4591 15.7907 13.9548C15.8327 13.4408 15.8333 12.7805 15.8333 11.8333V9.16667C15.8333 8.2195 15.8327 7.55924 15.7907 7.0452C15.7495 6.54089 15.6727 6.25115 15.5609 6.03169C15.3212 5.56129 14.9387 5.17883 14.4683 4.93915C14.2488 4.82733 13.9591 4.75052 13.4548 4.70931C12.9408 4.66732 12.2805 4.66667 11.3333 4.66667H8.66667C7.7195 4.66667 7.05924 4.66732 6.5452 4.70931Z" fill="#262E3D"/>
</svg>
