<svg width="10" height="10" viewBox="0 0 10 10" fill="none" xmlns="http://www.w3.org/2000/svg">
<path d="M6.5003 4.29372e-07C5.83466 -0.000331363 5.1831 0.191636 4.62398 0.552815C4.06486 0.913993 3.62198 1.429 3.34861 2.03591C3.07523 2.64282 2.98301 3.31578 3.08302 3.97385C3.18303 4.63193 3.47102 5.24711 3.91236 5.74539L0.532959 9.58124L1.00197 10L4.37299 6.1809C4.80661 6.52008 5.31498 6.75073 5.85578 6.85365C6.39658 6.95657 6.95415 6.92878 7.48203 6.7726C8.00992 6.61642 8.49285 6.33636 8.89059 5.95575C9.28833 5.57515 9.58937 5.10501 9.76863 4.58451C9.9479 4.06401 10.0002 3.50821 9.92117 2.9634C9.84215 2.4186 9.63409 1.90056 9.31433 1.45244C8.99457 1.00432 8.57237 0.639095 8.08288 0.387179C7.5934 0.135264 7.0508 0.0039544 6.5003 0.00418803V4.29372e-07ZM6.5003 6.28141C5.75063 6.28141 5.03166 5.9836 4.50156 5.45351C3.97147 4.92341 3.67366 4.20444 3.67366 3.45477C3.67366 2.7051 3.97147 1.98614 4.50156 1.45604C5.03166 0.925946 5.75063 0.628141 6.5003 0.628141C7.24997 0.628141 7.96893 0.925946 8.49903 1.45604C9.02912 1.98614 9.32693 2.7051 9.32693 3.45477C9.32693 4.20444 9.02912 4.92341 8.49903 5.45351C7.96893 5.9836 7.24997 6.28141 6.5003 6.28141Z" fill="#585858"/>
</svg>
