<svg width="20" height="21" viewBox="0 0 20 21" fill="none" xmlns="http://www.w3.org/2000/svg">
<path fill-rule="evenodd" clip-rule="evenodd" d="M9.58335 2.1665C8.89299 2.1665 8.33335 2.72615 8.33335 3.4165V3.72018C8.33335 3.9103 8.2042 4.07498 8.02262 4.1313C7.63011 4.25303 7.25312 4.41006 6.89537 4.59866C6.72716 4.68734 6.51935 4.66221 6.3849 4.52775L6.1698 4.31265C5.68164 3.8245 4.89019 3.8245 4.40203 4.31265L3.81278 4.90191C3.32462 5.39006 3.32462 6.18152 3.81278 6.66968L4.02787 6.88478C4.16233 7.01923 4.18746 7.22704 4.09878 7.39525C3.91019 7.75298 3.75317 8.12995 3.63144 8.52244C3.57512 8.70403 3.41044 8.83317 3.22032 8.83317H2.91663C2.22627 8.83317 1.66663 9.39281 1.66663 10.0832V10.9165C1.66663 11.6069 2.22627 12.1665 2.91663 12.1665H3.22032C3.41044 12.1665 3.57512 12.2956 3.63144 12.4772C3.75317 12.8697 3.91019 13.2467 4.09878 13.6044C4.18746 13.7726 4.16233 13.9804 4.02787 14.1149L3.81278 14.33C3.32462 14.8182 3.32462 15.6096 3.81278 16.0978L4.40203 16.687C4.89019 17.1752 5.68164 17.1752 6.1698 16.687L6.3849 16.4719C6.51935 16.3375 6.72716 16.3123 6.89537 16.401C7.25312 16.5896 7.63011 16.7466 8.02262 16.8684C8.2042 16.9247 8.33335 17.0894 8.33335 17.2795V17.5832C8.33335 18.2735 8.89299 18.8332 9.58335 18.8332H10.4167C11.107 18.8332 11.6667 18.2735 11.6667 17.5832V17.2795C11.6667 17.0893 11.7958 16.9247 11.9774 16.8683C12.3699 16.7466 12.7468 16.5896 13.1045 16.401C13.2728 16.3123 13.4806 16.3375 13.615 16.4719L13.8301 16.687C14.3183 17.1752 15.1097 17.1752 15.5979 16.687L16.1871 16.0978C16.6753 15.6096 16.6753 14.8182 16.1871 14.33L15.972 14.1149C15.8376 13.9804 15.8125 13.7726 15.9011 13.6044C16.0897 13.2467 16.2467 12.8697 16.3685 12.4772C16.4248 12.2956 16.5895 12.1665 16.7796 12.1665H17.0833C17.7736 12.1665 18.3333 11.6069 18.3333 10.9165V10.0832C18.3333 9.39281 17.7736 8.83317 17.0833 8.83317H16.7796C16.5895 8.83317 16.4248 8.70403 16.3685 8.52244C16.2467 8.12995 16.0897 7.75298 15.9011 7.39525C15.8125 7.22704 15.8376 7.01923 15.972 6.88478L16.1871 6.66968C16.6753 6.18152 16.6753 5.39006 16.1871 4.90191L15.5979 4.31265C15.1097 3.8245 14.3183 3.8245 13.8301 4.31265L13.615 4.52775C13.4806 4.66221 13.2728 4.68734 13.1046 4.59866C12.7468 4.41007 12.3699 4.25306 11.9774 4.13133C11.7958 4.07501 11.6667 3.91033 11.6667 3.72021V3.4165C11.6667 2.72615 11.107 2.1665 10.4167 2.1665H9.58335ZM9.99996 12.9998C11.3807 12.9998 12.5 11.8805 12.5 10.4998C12.5 9.11913 11.3807 7.99984 9.99996 7.99984C8.61925 7.99984 7.49996 9.11913 7.49996 10.4998C7.49996 11.8805 8.61925 12.9998 9.99996 12.9998Z" fill="#262E3D"/>
</svg>
